<svg
  width="20"
  height="20"
  viewBox="0 0 20 20"
  fill="none"
  xmlns="http://www.w3.org/2000/svg"
>
<path
    d="M14.6 2H16C17.1046 2 18 2.89543 18 4V5.4"
    stroke="#576F8B"
    stroke-width="1.5"
    stroke-linecap="round"
    stroke-linejoin="round"
  />
<path
    d="M14.6 18H16C17.1046 18 18 17.1046 18 16V14.6"
    stroke="#576F8B"
    stroke-width="1.5"
    stroke-linecap="round"
    stroke-linejoin="round"
  />
<path
    d="M5.4 2H4C2.89543 2 2 2.89543 2 4V5.4"
    stroke="#576F8B"
    stroke-width="1.5"
    stroke-linecap="round"
    stroke-linejoin="round"
  />
<path
    d="M5.4 18H4C2.89543 18 2 17.1046 2 16V14.6"
    stroke="#576F8B"
    stroke-width="1.5"
    stroke-linecap="round"
    stroke-linejoin="round"
  />
<path
    fillRule="evenodd"
    clipRule="evenodd"
    d="M12 15L11 15L11 5.00039L12 5.00039L12 15ZM7 14.9995L5 14.9995L5 4.99953L7 4.99953L7 14.9995ZM13 15L15 15L15 5L13 5L13 15ZM10 15L8 15L8 5.00039L10 5.00039L10 15Z"
    fill="#576F8B"
  />
</svg>
