<svg
    width="24"
    height="24"
    viewBox="0 0 24 24"
    fill="none"
    xmlns="http://www.w3.org/2000/svg"
>
<circle cx="12" cy="12" r="12" fill="#152C4E" />
<g clip-path="url(#clip0_708_6433)">
<path
            fillRule="evenodd"
            clipRule="evenodd"
            d="M7.66664 7.66675C7.35981 7.66675 7.11108 7.91548 7.11108 8.2223V13.7779C7.11108 14.0847 7.35981 14.3334 7.66664 14.3334H13.2222C13.529 14.3334 13.7778 14.0847 13.7778 13.7779V8.2223C13.7778 7.91548 13.529 7.66675 13.2222 7.66675H7.66664ZM14.8879 9.85226C14.8879 9.54543 15.1366 9.29671 15.4434 9.29671H16.0688C16.2035 9.29671 16.3336 9.34563 16.4349 9.43438L18.0327 10.8341C18.1531 10.9396 18.2222 11.0919 18.2222 11.252V13.7779C18.2222 14.0847 17.9734 14.3334 17.6666 14.3334H15.4434C15.1366 14.3334 14.8879 14.0847 14.8879 13.7779V9.85226ZM8.22219 17.6668C8.83584 17.6668 9.3333 17.1693 9.3333 16.5556C9.3333 15.942 8.83584 15.4445 8.22219 15.4445C7.60854 15.4445 7.11108 15.942 7.11108 16.5556C7.11108 17.1693 7.60854 17.6668 8.22219 17.6668ZM16 17.6668C16.6136 17.6668 17.1111 17.1693 17.1111 16.5556C17.1111 15.942 16.6136 15.4445 16 15.4445C15.3863 15.4445 14.8888 15.942 14.8888 16.5556C14.8888 17.1693 15.3863 17.6668 16 17.6668Z"
            fill="white"
        />
</g>
<defs>
<clipPath id="clip0_708_6433">
<rect width="12" height="12" fill="white" transform="translate(6 6)" />
</clipPath>
</defs>
</svg>
