<svg width="65" height="12" viewBox="0 0 65 12" fill="none" xmlns="http://www.w3.org/2000/svg">
    <path fillRule="evenodd" clipRule="evenodd" d="M10.114 2.625 7.522 3.774 5.064 4.82l-2.44-1.057L0 2.629v7.183L5.063 12l5.05-2.188V7.54l.012-1.29-1.773.778-.008 1.274-3.28 1.419-3.287-1.408V5.737l3.282 1.414 4.553-1.97.502-.216v-2.34z" fill="#2C40C0"/>
    <path d="M0 2.794 5.012.644l4.997 2.146L7.444 3.92l-2.432-1.03-2.414 1.019L0 2.794z" fill="#73B922"/>
    <path fillRule="evenodd" clipRule="evenodd" d="M50.767 9.993h1.874V2.842h-1.874v7.15zm.191-9.715a.967.967 0 0 0-.277.713c0 .287.09.525.27.714.185.19.434.284.746.284.313 0 .56-.094.74-.284a.98.98 0 0 0 .277-.714.967.967 0 0 0-.277-.713C52.252.093 52.005 0 51.697 0c-.307 0-.554.093-.739.278zM15.805 9.266c.537.573 1.285.859 2.244.859.51 0 .984-.097 1.42-.29.435-.2.767-.457.996-.774l-.732-1.13c-.419.427-.94.64-1.565.64-.431 0-.75-.12-.957-.363-.207-.246-.323-.634-.35-1.163h3.716v-.918c-.009-1.128-.24-1.979-.693-2.552-.453-.577-1.128-.865-2.026-.865-.92 0-1.626.306-2.119.918-.493.613-.739 1.483-.739 2.61v.57c0 1.066.268 1.885.805 2.458zm2.937-3.53h-1.867c.026-.515.112-.89.257-1.123.15-.233.387-.35.713-.35.325 0 .554.11.686.33.132.22.203.544.211.972v.172zm10.803 1.778c-.009.705-.284 1.058-.825 1.058-.242 0-.43-.053-.561-.159-.132-.11-.227-.28-.284-.509-.057-.233-.086-.64-.086-1.222v-.727c.01-.666.084-1.113.225-1.342.14-.233.374-.35.7-.35.294 0 .505.108.633.324.128.216.194.524.198.925h1.756c-.01-.895-.24-1.584-.693-2.069-.454-.489-1.074-.733-1.862-.733-.932 0-1.639.295-2.118.885-.476.59-.713 1.448-.713 2.571v.569c.009 1.114.255 1.958.739 2.53.484.574 1.186.86 2.105.86.744 0 1.351-.24 1.822-.72.471-.48.71-1.11.72-1.89h-1.756zm2.594-1.328c0-1.084.255-1.934.766-2.551.51-.617 1.216-.925 2.118-.925.911 0 1.622.308 2.132.925s.766 1.472.766 2.564v.456c0 1.089-.253 1.939-.76 2.551-.505.613-1.214.919-2.125.919-.915 0-1.628-.306-2.138-.919-.506-.616-.76-1.471-.76-2.564v-.456zm1.874.47c0 1.277.341 1.916 1.023 1.916.63 0 .968-.533 1.017-1.6l.007-.786c0-.652-.09-1.135-.271-1.447-.18-.318-.436-.476-.766-.476-.317 0-.565.158-.746.476-.176.312-.264.795-.264 1.447v.47zm7.03 3.469c.651 0 1.17-.262 1.557-.786l.053.654h1.756V2.842h-1.881V8.01c-.19.37-.497.555-.924.555-.453 0-.684-.348-.693-1.044v-4.68h-1.868v4.634c0 .863.17 1.522.508 1.976.339.45.836.674 1.492.674zm8.663-5.471s-.45-.11-.934-.075c-.718 0-.982.615-1.162 1.064v4.35h-1.874V2.842h1.762l.053.548c.294-.604.702-.68 1.22-.68.146 0 .822 0 .935.14v1.804zm7.265 5.471c-.96 0-1.707-.286-2.244-.86-.537-.572-.805-1.391-.805-2.458V6.24c0-1.128.246-1.998.74-2.61.492-.613 1.198-.92 2.118-.92.897 0 1.573.29 2.026.866.453.573.684 1.424.693 2.552v.918h-3.716c.026.529.143.917.35 1.163.207.243.526.364.957.364.625 0 1.146-.214 1.564-.641l.733 1.13c-.229.317-.561.575-.997.773-.435.194-.909.291-1.419.291zm-1.175-4.388h1.868v-.172c-.008-.428-.079-.751-.211-.972-.132-.22-.36-.33-.686-.33-.326 0-.564.117-.713.35-.146.234-.231.608-.258 1.124zm7.77-1.158c.483-.035.934.075.934.075V2.849c-.112-.14-.789-.14-.934-.14-.52 0-.926.077-1.221.68l-.053-.547H60.53v7.15h1.874V5.644c.18-.45.444-1.064 1.162-1.064zm-41.8 2.07h3.002v-1.56h-3.003v1.56z" fill="#2C40C0"/>
</svg>
